<?xml version="1.0" encoding="UTF-8"?>
<svg version="1.1" xmlns="http://www.w3.org/2000/svg" width="3508" height="2481">
<path d="M0 0 C513.15 0 1026.3 0 1555 0 C1555 537.9 1555 1075.8 1555 1630 C1548 1630 1548 1630 1546.15478516 1628.8894043 C1545.70409668 1628.37289307 1545.2534082 1627.85638184 1544.7890625 1627.32421875 C1544.27158447 1626.74937744 1543.75410645 1626.17453613 1543.22094727 1625.58227539 C1542.69428467 1624.95699951 1542.16762207 1624.33172363 1541.625 1623.6875 C1541.059021 1623.0473999 1540.49304199 1622.4072998 1539.90991211 1621.74780273 C1535.96007964 1617.24581298 1532.19099395 1612.5973649 1528.44921875 1607.921875 C1524.24738924 1602.90916611 1519.7153132 1598.20381675 1515.23046875 1593.4453125 C1512.2864525 1590.31881938 1509.4289331 1587.13117158 1506.62890625 1583.875 C1504.66334911 1581.61248819 1502.64326691 1579.40309317 1500.625 1577.1875 C1497.57141133 1573.81059018 1494.65570795 1570.36782868 1491.8125 1566.8125 C1486.90996514 1560.74679782 1481.57741963 1555.11835023 1476.23046875 1549.4453125 C1473.28967421 1546.32224078 1470.43600823 1543.13727908 1467.63671875 1539.88671875 C1465.62126228 1537.56341213 1463.56151538 1535.28251535 1461.5 1533 C1456.70092208 1527.67665307 1451.9592205 1522.31136661 1447.3203125 1516.84765625 C1441.72558261 1510.26681821 1436.04264888 1503.80234102 1430.15625 1497.48046875 C1426.94030561 1494.02630626 1423.79482045 1490.52564408 1420.70703125 1486.95703125 C1418.66366569 1484.6144085 1416.58319141 1482.30726578 1414.5 1480 C1409.68985199 1474.66437363 1404.94019763 1469.28413119 1400.28515625 1463.8125 C1399.78604736 1463.22694336 1399.28693848 1462.64138672 1398.77270508 1462.03808594 C1397.80563389 1460.90247116 1396.84040771 1459.76528058 1395.87768555 1458.62597656 C1390.73953435 1452.59228127 1385.36949962 1446.85763595 1380 1441 C1379.67 1503.37 1379.34 1565.74 1379 1630 C1370.09 1630 1361.18 1630 1352 1630 C1352 1546.18 1352 1462.36 1352 1376 C1359 1376 1359 1376 1361.7734375 1378.23828125 C1362.66118294 1379.24526358 1363.52756538 1380.27136603 1364.375 1381.3125 C1364.84703857 1381.85865967 1365.31907715 1382.40481934 1365.80541992 1382.9675293 C1369.46552579 1387.2346711 1372.96669733 1391.6380992 1376.48828125 1396.01953125 C1380.11088669 1400.31820613 1383.98271023 1404.3673755 1387.84472656 1408.45019531 C1392.0015677 1412.86754081 1395.86667485 1417.43875636 1399.65234375 1422.1796875 C1403.5766481 1426.89407642 1407.81026862 1431.31905716 1412.00390625 1435.79296875 C1416.38116714 1440.4639332 1420.5514289 1445.29747541 1424.69921875 1450.171875 C1430.52598465 1457.01025856 1436.44380601 1463.73161517 1442.54296875 1470.328125 C1445.1684904 1473.18322326 1447.7266784 1476.08765244 1450.265625 1479.01953125 C1452.27264538 1481.31133155 1454.32402851 1483.55996752 1456.375 1485.8125 C1459.44746773 1489.21083552 1462.38442622 1492.67590523 1465.25 1496.25 C1469.91058865 1502.01441228 1474.93779281 1507.38851953 1480.00390625 1512.79296875 C1484.36990293 1517.45191319 1488.53175833 1522.27070803 1492.6640625 1527.13671875 C1498.21054935 1533.65571276 1503.84557487 1540.04799964 1509.69433594 1546.29760742 C1513.66135992 1550.56419022 1517.34897523 1554.99215366 1520.96484375 1559.5625 C1523.15198521 1562.18203219 1525.5869587 1564.5869587 1528 1567 C1528.33 1111.93 1528.66 656.86 1529 188 C1033.01 188 537.02 188 26 188 C26 655.61 26 1123.22 26 1605 C58.34 1605 90.68 1605 124 1605 C124 1613.25 124 1621.5 124 1630 C83.08 1630 42.16 1630 0 1630 C0 1092.1 0 554.2 0 0 Z " fill="#CFB8D9" transform="translate(983,422)"/>
<path d="M0 0 C0.76083893 0.00093658 1.52167786 0.00187317 2.30557251 0.00283813 C68.19941044 0.17698571 135.48072667 14.93952284 186.3125 59.1875 C186.90289063 59.69812988 187.49328125 60.20875977 188.1015625 60.73486328 C215.24557201 84.40218771 232.17673905 115.82512297 238.3125 151.1875 C238.48982666 152.19949463 238.66715332 153.21148926 238.84985352 154.25415039 C240.32995355 163.50691639 240.67376738 172.53226501 240.625 181.875 C240.62284485 182.62106506 240.6206897 183.36713013 240.61846924 184.13580322 C240.43176414 224.49755949 225.98168919 261.39504038 197.625 290.3125 C174.07558223 313.56859762 145.06411951 325.34052872 114.25 335.6875 C113.43530243 335.96142578 112.62060486 336.23535156 111.78121948 336.51757812 C109.44849667 337.29884892 107.11348997 338.07278364 104.77734375 338.84375 C104.06884277 339.08081665 103.3603418 339.3178833 102.63037109 339.56213379 C99.73160503 340.51007404 97.38436761 341.1875 94.3125 341.1875 C94.3125 341.8475 94.3125 342.5075 94.3125 343.1875 C95.5641394 343.3431543 95.5641394 343.3431543 96.84106445 343.50195312 C105.88024883 344.69990977 114.65475912 346.46298238 123.5 348.6875 C124.18482452 348.85846191 124.86964905 349.02942383 125.57522583 349.20556641 C177.57789867 362.30699463 231.4011232 391.13477975 261.3125 437.1875 C261.74111328 437.84153809 262.16972656 438.49557617 262.61132812 439.16943359 C273.11902563 455.44383692 279.97853335 473.34818373 284.3125 492.1875 C284.47621094 492.8690918 284.63992188 493.55068359 284.80859375 494.25292969 C290.09905955 517.21836079 289.08770322 544.21061974 284.3125 567.1875 C284.14089355 568.04408203 283.96928711 568.90066406 283.79248047 569.78320312 C274.05165811 617.38178817 246.88056315 657.52220707 206.43261719 684.43847656 C202.1492079 687.18271565 197.75214517 689.70642597 193.3125 692.1875 C192.62945801 692.57615234 191.94641602 692.96480469 191.24267578 693.36523438 C161.14140862 710.38584617 128.10631275 720.55985621 94.3125 727.1875 C93.3524707 727.37795898 92.39244141 727.56841797 91.40332031 727.76464844 C69.63846838 731.95982554 47.38521497 733.47872657 25.3125 735.1875 C24.59475403 735.24371521 23.87700806 735.29993042 23.13751221 735.35784912 C10.79566323 736.29342252 -1.5501462 736.40628727 -13.92333984 736.42773438 C-17.28638601 736.43742475 -20.64881525 736.46855722 -24.01171875 736.5 C-42.84898439 736.59268059 -61.27723472 734.93170767 -79.625 730.5 C-81.23773804 730.11545654 -81.23773804 730.11545654 -82.88305664 729.72314453 C-107.98732682 723.54583674 -133.05522319 714.21487238 -155.22631836 700.77758789 C-160.10515715 697.96987366 -164.20948298 697.44224383 -169.6875 698.1875 C-172.64827428 699.13047927 -172.64827428 699.13047927 -175.25 700.6875 C-176.26707031 701.2340625 -177.28414062 701.780625 -178.33203125 702.34375 C-179.43933594 702.9521875 -180.54664063 703.560625 -181.6875 704.1875 C-195.45930393 711.46234313 -209.08283336 717.24982369 -224.25 720.9375 C-225.06364014 721.13625732 -225.87728027 721.33501465 -226.71557617 721.53979492 C-240.88495469 724.79954841 -254.78083757 725.56368979 -269.25 725.5 C-270.13145691 725.49784485 -271.01291382 725.4956897 -271.92108154 725.49346924 C-326.26318733 725.28044986 -371.94267649 703.7341164 -411.05224609 666.72119141 C-412.73404239 665.14384827 -414.43554869 663.59078989 -416.14453125 662.04296875 C-417.00292603 661.26264282 -417.00292603 661.26264282 -417.87866211 660.46655273 C-418.95359979 659.49042766 -420.03099575 658.5169983 -421.11157227 657.54711914 C-424.62116725 654.34141968 -427.71424878 650.89897409 -430.81298828 647.29785156 C-434.10239949 643.59458632 -437.65494101 640.15686474 -441.1875 636.6875 C-446.00724144 631.95397934 -450.64622589 627.16654374 -455.05273438 622.04492188 C-457.47258677 619.29548384 -460.06396614 616.7408859 -462.6875 614.1875 C-465.94906014 611.01314735 -469.07191061 607.78678954 -472.046875 604.33984375 C-481.56953196 593.34070458 -492.10157365 582.99490103 -503.6875 574.1875 C-504.61433594 573.4553125 -505.54117187 572.723125 -506.49609375 571.96875 C-538.51393824 547.13684936 -573.32930914 538.79084699 -613.35253906 543.77709961 C-632.73946606 546.43383762 -652.07691881 551.08534827 -665.6875 566.1875 C-667.32695663 568.49148305 -668.47901875 570.61290952 -669.6875 573.1875 C-670.0175 573.8475 -670.3475 574.5075 -670.6875 575.1875 C-671.54685257 584.34453558 -670.4813629 590.17821192 -664.98046875 597.44140625 C-656.58603197 607.44089787 -645.75879903 615.21397827 -635.3125 622.9375 C-620.13800142 634.24640816 -608.16130771 647.33569662 -604.96875 666.64453125 C-602.90463257 685.30759302 -608.21940235 702.06868594 -619 717.1875 C-628.08611206 727.98758319 -641.28535049 734.18754177 -655.23193359 735.41064453 C-675.45814814 736.28152162 -693.32284988 732.9977542 -708.9375 719.0625 C-724.9176131 704.07006839 -733.05902047 683.32433061 -733.81152344 661.60839844 C-733.90802719 657.36403666 -733.9340961 653.12035819 -733.9375 648.875 C-733.93817474 648.11839081 -733.93884949 647.36178162 -733.93954468 646.58224487 C-733.92252987 634.55055194 -733.30692705 622.96976536 -730.6875 611.1875 C-730.52121094 610.40987305 -730.35492187 609.63224609 -730.18359375 608.83105469 C-720.34866643 564.04570971 -690.69756476 523.83979111 -654.6875 496.1875 C-654.11870117 495.74229004 -653.54990234 495.29708008 -652.96386719 494.83837891 C-632.18825266 478.59472683 -609.37477412 465.6679055 -585.6875 454.1875 C-584.71562744 453.71207764 -584.71562744 453.71207764 -583.72412109 453.22705078 C-573.07620545 448.02957444 -562.26814546 443.20908464 -551.43170166 438.42178345 C-537.06158251 432.0726393 -522.78546382 425.59940157 -508.68701172 418.66162109 C-505.53745366 417.11375917 -502.38003603 415.58261666 -499.22265625 414.05078125 C-466.47675593 398.05278415 -433.83544664 379.04646056 -406.91015625 354.22265625 C-404.89885309 352.38102366 -402.83930328 350.6266381 -400.75 348.875 C-362.37489367 315.10490643 -346.30640406 264.66824412 -342.89916992 215.14013672 C-342.51187649 207.90797901 -342.44300784 200.67891346 -342.4375 193.4375 C-342.43682526 192.63068787 -342.43615051 191.82387573 -342.43545532 190.99261475 C-342.48839117 150.82963998 -349.9611315 106.64020589 -373.6875 73.1875 C-374.40292969 72.17558594 -375.11835937 71.16367187 -375.85546875 70.12109375 C-399.15463943 38.11508417 -434.04496625 20.43921637 -472.6875 14.1875 C-480.82557851 12.9145267 -489.03222756 12.94437319 -497.25 12.9375 C-497.97781677 12.93682526 -498.70563354 12.93615051 -499.45550537 12.93545532 C-546.73061531 13.00463336 -598.92412657 26.17930729 -634.09375 59.46484375 C-646.59310108 72.75742288 -653.18583927 90.92168696 -652.9609375 109.09375 C-652.19894243 117.71517997 -648.05746112 124.50202139 -641.6875 130.1875 C-631.91131679 136.94430546 -621.25172977 142.02027263 -610.55053711 147.11206055 C-592.15469864 155.89628515 -575.32300755 167.28390476 -568.10546875 187.33984375 C-561.26591769 207.98884179 -561.23639598 231.30600214 -570.2421875 251.33984375 C-578.3178834 267.25114729 -590.36635918 278.51476593 -607.4375 284.125 C-609.84470345 284.84493443 -612.2608336 285.53617504 -614.6875 286.1875 C-615.54730469 286.42082031 -616.40710937 286.65414063 -617.29296875 286.89453125 C-638.59400584 291.8540692 -660.50922594 288.93901775 -679.51953125 278.21875 C-698.22984417 266.22200189 -707.21912311 247.25388801 -712.06420898 226.28808594 C-721.77853533 181.33361933 -711.9385291 136.57665642 -687.53979492 97.98706055 C-681.16235687 88.1409569 -673.92344857 79.20861295 -665.9296875 70.6171875 C-664.06989625 68.60187364 -662.30316619 66.55452645 -660.5625 64.4375 C-627.2786839 25.23363755 -570.58954775 10.70251351 -521.6875 6.1875 C-515.02617382 5.65496761 -508.36686521 5.36273477 -501.6875 5.1875 C-500.38039063 5.14625 -499.07328125 5.105 -497.7265625 5.0625 C-431.70573457 4.0082752 -350.90438041 18.45591162 -300.91015625 65.1171875 C-298.90623266 66.98375956 -296.84997085 68.74366074 -294.75 70.5 C-263.35982474 98.11580549 -246.11771494 140.05740939 -242.6875 181.1875 C-242.38574168 186.76846642 -242.35707238 192.35012693 -242.37182617 197.93798828 C-242.37497949 200.42134883 -242.3514407 202.90350464 -242.32617188 205.38671875 C-242.26724201 220.14723719 -243.83424737 234.91674356 -248.25 249.0625 C-248.6224585 250.27486328 -248.6224585 250.27486328 -249.00244141 251.51171875 C-253.68577893 266.00418566 -260.56709188 279.98123951 -269.6875 292.1875 C-270.41453125 293.2084375 -271.1415625 294.229375 -271.890625 295.28125 C-277.6577842 303.15692091 -284.30792329 310.08889619 -291.1875 317 C-292.48627075 318.30698853 -292.48627075 318.30698853 -293.8112793 319.64038086 C-344.28551667 369.56376571 -416.59749173 392.29487393 -480.90905762 418.55651855 C-596.69608071 458.33396598 -596.69608071 458.33396598 -679.03125 541.3203125 C-680.66201668 545.96023198 -680.8705598 550.28552334 -680.875 555.1875 C-680.89336914 556.25484375 -680.89336914 556.25484375 -680.91210938 557.34375 C-680.9226828 561.121987 -680.79785168 563.98443658 -678.6875 567.1875 C-678.28660156 566.7028125 -677.88570312 566.218125 -677.47265625 565.71875 C-658.15120865 542.9360907 -630.56099022 534.65674067 -601.625 531.875 C-551.16921508 527.76460066 -505.55975498 545.53838392 -460.31393433 565.60853577 C-393.58579213 595.20445131 -325.51975408 617.87871221 -251.6875 616.1875 C-252.08952637 615.51509277 -252.49155273 614.84268555 -252.90576172 614.14990234 C-278.48747898 571.1536409 -299.11365052 519.12236742 -286.23095703 468.19287109 C-286.05161621 467.53109863 -285.87227539 466.86932617 -285.6875 466.1875 C-285.38948486 465.08462646 -285.38948486 465.08462646 -285.08544922 463.95947266 C-280.63047169 448.13846256 -273.83168621 434.37879096 -262.6875 422.1875 C-261.93984375 421.34703125 -261.1921875 420.5065625 -260.421875 419.640625 C-241.9448954 399.94000437 -215.31705202 390.10217626 -188.6875 389.1875 C-156.8743461 388.70584741 -127.42051286 398.1717357 -104.0625 420.3125 C-84.51247238 440.56677934 -76.45908024 466.56072873 -76.4375 494.25 C-76.43648788 495.41290558 -76.43648788 495.41290558 -76.43545532 496.5993042 C-76.51812508 556.82152014 -93.62624191 617.47353437 -132.6875 664.1875 C-133.17750488 664.77901855 -133.66750977 665.37053711 -134.17236328 665.97998047 C-140.65083454 673.77871877 -147.36908898 681.16053012 -154.6875 688.1875 C-151.92610186 691.1817391 -149.3998487 693.07510156 -145.7421875 694.8515625 C-144.27023926 695.56771729 -144.27023926 695.56771729 -142.76855469 696.29833984 C-141.71055664 696.7980127 -140.65255859 697.29768555 -139.5625 697.8125 C-138.4580957 698.33666504 -137.35369141 698.86083008 -136.21582031 699.40087891 C-106.72384388 713.17240758 -76.08487005 722.65797001 -43.6875 726.1875 C-42.7078125 726.29964844 -41.728125 726.41179688 -40.71875 726.52734375 C9.1936246 731.32155868 65.66242824 721.47254571 105.3125 689.1875 C109.45599705 685.66565437 113.39875633 681.96126714 117.3125 678.1875 C118.46298828 677.13175781 118.46298828 677.13175781 119.63671875 676.0546875 C131.36168401 664.98227866 139.88457609 651.37340692 147.3125 637.1875 C147.92738281 636.04925781 148.54226563 634.91101562 149.17578125 633.73828125 C175.82959886 582.85372037 181.88060815 513.9656585 165.5546875 459.1015625 C161.84560451 447.24365206 157.45957256 435.99181276 151.3125 425.1875 C150.67570312 424.0634375 150.03890625 422.939375 149.3828125 421.78125 C129.88965893 388.90123192 100.87626127 366.7067023 64.03125 356.7109375 C62.25204161 356.2575367 60.47080578 355.81200718 58.6875 355.375 C57.9022998 355.18010986 57.11709961 354.98521973 56.30810547 354.78442383 C41.68500765 351.42274106 26.95272555 350.89109519 12.01317215 350.85197449 C8.9024113 350.84354917 5.79192543 350.8229331 2.6812439 350.79943848 C-5.02378434 350.74360008 -12.72887821 350.70766222 -20.434021 350.67181396 C-26.99194401 350.64060102 -33.54972455 350.60150701 -40.1075325 350.55155945 C-43.17151023 350.53150802 -46.23537838 350.52318309 -49.29940796 350.51525879 C-51.16494151 350.50229619 -53.03047131 350.48877734 -54.89599609 350.47460938 C-55.74682266 350.47559128 -56.59764923 350.47657318 -57.47425842 350.47758484 C-61.38745685 350.43602047 -63.35792069 350.40721954 -66.6875 348.1875 C-66.9375 344.625 -66.9375 344.625 -66.6875 341.1875 C-64.7487411 339.2487411 -61.07000511 340.02344664 -58.42407227 340.01391602 C-57.66280029 340.007229 -56.90152832 340.00054199 -56.1171875 339.99365234 C-54.45516653 339.97955867 -52.7931257 339.96767853 -51.13107491 339.95770454 C-48.4837921 339.94128147 -45.83665056 339.91803077 -43.18943787 339.89280701 C-35.65883496 339.82215492 -28.12816678 339.76259358 -20.59741211 339.71069336 C-15.99254817 339.67847465 -11.38783435 339.63707395 -6.78309441 339.59049797 C-5.04240634 339.57469797 -3.30168361 339.56227797 -1.56094551 339.55359077 C13.53911642 339.47729741 28.77593884 338.8719061 43.4375 334.9375 C44.26677002 334.72061523 45.09604004 334.50373047 45.95043945 334.28027344 C81.69978973 324.63922875 113.57037009 302.57228358 132.3125 270.1875 C143.85094421 248.93848393 149.7126258 225.13052755 152.3125 201.1875 C152.47878906 199.68703125 152.47878906 199.68703125 152.6484375 198.15625 C157.22373973 149.18815046 144.2185492 97.90863926 113.3125 59.1875 C109.82146554 55.0131629 106.11132531 51.08388744 102.3125 47.1875 C101.46365234 46.24583984 101.46365234 46.24583984 100.59765625 45.28515625 C82.16401877 25.35056101 54.45561189 14.76657441 28.3125 10.1875 C27.02988281 9.96191406 25.74726562 9.73632812 24.42578125 9.50390625 C-20.97202812 2.95397355 -78.12882648 9.84593371 -116.375 37.25 C-118.51865612 38.85402906 -120.60056198 40.50763702 -122.6875 42.1875 C-123.58597656 42.89261719 -124.48445313 43.59773437 -125.41015625 44.32421875 C-139.48236865 56.09093731 -150.00369979 73.9758553 -152.5 92.1875 C-153.14549515 100.94975329 -151.16198167 108.30768191 -145.6875 115.1875 C-140.1079294 120.93941255 -133.80660834 124.57434323 -126.6875 128.125 C-125.67800293 128.64078613 -124.66850586 129.15657227 -123.62841797 129.68798828 C-118.38138348 132.36110021 -113.10510607 134.97359097 -107.82080078 137.57202148 C-91.28235649 145.72865515 -77.65718171 156.27381176 -70.97607422 174.08398438 C-63.86142313 195.3351141 -65.15475083 217.34779479 -74.80078125 237.5859375 C-77.19068783 242.31179688 -80.10674229 246.29332805 -83.6875 250.1875 C-84.24566406 250.85910156 -84.80382813 251.53070312 -85.37890625 252.22265625 C-95.73493325 263.83124807 -113.43526861 270.3713146 -128.71313477 271.31225586 C-150.58228656 272.08275281 -170.9014191 267.35974787 -187.32177734 252.07519531 C-201.25928311 238.50135285 -208.50324542 221.15044889 -211.6875 202.1875 C-211.81898438 201.44757813 -211.95046875 200.70765625 -212.0859375 199.9453125 C-218.01723487 158.74684159 -202.73886218 110.12037208 -178.46850586 76.95947266 C-172.50842615 69.13176726 -165.63429288 62.13429288 -158.6875 55.1875 C-158.12289062 54.57648437 -157.55828125 53.96546875 -156.9765625 53.3359375 C-118.41352793 12.23824338 -53.77036876 -0.08650578 0 0 Z M-245.6875 418.1875 C-246.35265625 418.70699219 -247.0178125 419.22648437 -247.703125 419.76171875 C-267.78800551 435.96842111 -277.79797627 461.20571786 -280.6875 486.1875 C-280.96298804 490.52586335 -281.02233793 494.84117681 -281 499.1875 C-280.99436035 500.35958008 -280.9887207 501.53166016 -280.98291016 502.73925781 C-280.46692066 540.28898846 -267.55605452 585.29399591 -241.5234375 613.53515625 C-237.88244364 616.81205072 -234.357108 616.40648275 -229.6875 616.1875 C-227.13685052 615.87813946 -224.59292063 615.50867147 -222.05859375 615.0859375 C-221.00352379 614.91091705 -221.00352379 614.91091705 -219.92713928 614.73236084 C-217.65806796 614.35164805 -215.39138864 613.95885509 -213.125 613.5625 C-211.95807617 613.35992584 -211.95807617 613.35992584 -210.76757812 613.15325928 C-169.52405616 605.94432712 -129.92844651 591.49300579 -104.375 556.375 C-87.82932415 532.65368397 -81.00275341 504.07659927 -85.8125 475.4375 C-89.09550177 458.05283674 -96.86612794 441.36645012 -108.6875 428.1875 C-109.49960938 427.28128906 -110.31171875 426.37507813 -111.1484375 425.44140625 C-129.29821229 406.25374111 -154.5766749 397.02583241 -180.6875 395.984375 C-205.05227962 395.5106573 -226.95032594 402.24832677 -245.6875 418.1875 Z " fill="#000000" transform="translate(1991.6875,820.8125)"/>
<path d="M0 0 C513.15 0 1026.3 0 1555 0 C1555 537.9 1555 1075.8 1555 1630 C1548 1630 1548 1630 1546.15478516 1628.8894043 C1545.70409668 1628.37289307 1545.2534082 1627.85638184 1544.7890625 1627.32421875 C1544.27158447 1626.74937744 1543.75410645 1626.17453613 1543.22094727 1625.58227539 C1542.69428467 1624.95699951 1542.16762207 1624.33172363 1541.625 1623.6875 C1541.059021 1623.0473999 1540.49304199 1622.4072998 1539.90991211 1621.74780273 C1535.96007964 1617.24581298 1532.19099395 1612.5973649 1528.44921875 1607.921875 C1524.24738924 1602.90916611 1519.7153132 1598.20381675 1515.23046875 1593.4453125 C1512.2864525 1590.31881938 1509.4289331 1587.13117158 1506.62890625 1583.875 C1504.66334911 1581.61248819 1502.64326691 1579.40309317 1500.625 1577.1875 C1497.57141133 1573.81059018 1494.65570795 1570.36782868 1491.8125 1566.8125 C1486.90996514 1560.74679782 1481.57741963 1555.11835023 1476.23046875 1549.4453125 C1473.28967421 1546.32224078 1470.43600823 1543.13727908 1467.63671875 1539.88671875 C1465.62126228 1537.56341213 1463.56151538 1535.28251535 1461.5 1533 C1456.70092208 1527.67665307 1451.9592205 1522.31136661 1447.3203125 1516.84765625 C1441.72558261 1510.26681821 1436.04264888 1503.80234102 1430.15625 1497.48046875 C1426.94030561 1494.02630626 1423.79482045 1490.52564408 1420.70703125 1486.95703125 C1418.66366569 1484.6144085 1416.58319141 1482.30726578 1414.5 1480 C1409.68985199 1474.66437363 1404.94019763 1469.28413119 1400.28515625 1463.8125 C1399.78604736 1463.22694336 1399.28693848 1462.64138672 1398.77270508 1462.03808594 C1397.80563389 1460.90247116 1396.84040771 1459.76528058 1395.87768555 1458.62597656 C1390.73953435 1452.59228127 1385.36949962 1446.85763595 1380 1441 C1379.67 1503.37 1379.34 1565.74 1379 1630 C1370.09 1630 1361.18 1630 1352 1630 C1352 1546.18 1352 1462.36 1352 1376 C1359 1376 1359 1376 1361.7734375 1378.23828125 C1362.66118294 1379.24526358 1363.52756538 1380.27136603 1364.375 1381.3125 C1364.84703857 1381.85865967 1365.31907715 1382.40481934 1365.80541992 1382.9675293 C1369.46552579 1387.2346711 1372.96669733 1391.6380992 1376.48828125 1396.01953125 C1380.11088669 1400.31820613 1383.98271023 1404.3673755 1387.84472656 1408.45019531 C1392.0015677 1412.86754081 1395.86667485 1417.43875636 1399.65234375 1422.1796875 C1403.5766481 1426.89407642 1407.81026862 1431.31905716 1412.00390625 1435.79296875 C1416.38116714 1440.4639332 1420.5514289 1445.29747541 1424.69921875 1450.171875 C1430.52598465 1457.01025856 1436.44380601 1463.73161517 1442.54296875 1470.328125 C1445.1684904 1473.18322326 1447.7266784 1476.08765244 1450.265625 1479.01953125 C1452.27264538 1481.31133155 1454.32402851 1483.55996752 1456.375 1485.8125 C1459.44746773 1489.21083552 1462.38442622 1492.67590523 1465.25 1496.25 C1469.91058865 1502.01441228 1474.93779281 1507.38851953 1480.00390625 1512.79296875 C1484.36990293 1517.45191319 1488.53175833 1522.27070803 1492.6640625 1527.13671875 C1498.21054935 1533.65571276 1503.84557487 1540.04799964 1509.69433594 1546.29760742 C1513.66135992 1550.56419022 1517.34897523 1554.99215366 1520.96484375 1559.5625 C1523.15198521 1562.18203219 1525.5869587 1564.5869587 1528 1567 C1528.33 1058.47 1528.66 549.94 1529 26 C1033.01 26 537.02 26 26 26 C26 547.07 26 1068.14 26 1605 C58.34 1605 90.68 1605 124 1605 C124 1613.25 124 1621.5 124 1630 C83.08 1630 42.16 1630 0 1630 C0 1092.1 0 554.2 0 0 Z " fill="#000000" transform="translate(983,422)"/>
<path d="M0 0 C17.96370364 15.2743701 29.30027381 35.44607427 33.3125 58.6875 C34.21793953 73.91012405 34.56443494 89.21893413 29.3125 103.6875 C28.93867188 104.74324219 28.56484375 105.79898437 28.1796875 106.88671875 C18.59505529 131.67346628 0.3963604 149.70676654 -23.6875 160.5 C-30.51665685 163.45224295 -37.34550376 165.4075146 -44.6875 166.6875 C-46.5746875 167.0278125 -46.5746875 167.0278125 -48.5 167.375 C-72.30836366 169.71598973 -98.26772844 164.55148314 -117.34521484 149.36816406 C-120.95176182 146.29899151 -124.32002173 143.01464919 -127.6875 139.6875 C-128.34234375 139.10484375 -128.9971875 138.5221875 -129.671875 137.921875 C-144.27322446 124.66009888 -153.8369876 101.56741416 -154.81176758 82.22119141 C-155.60985155 54.6811171 -149.51562858 30.68497279 -131.4375 9.375 C-96.04944856 -27.56515896 -40.1183729 -31.46539051 0 0 Z " fill="#CFB8D9" transform="translate(2214.6875,1851.3125)"/>
<path d="M0 0 C0.7306366 -0.00626404 1.46127319 -0.01252808 2.21405029 -0.01898193 C39.08899928 -0.21877602 71.29744562 14.21724475 97.75 39.5 C125.26116106 67.71758174 134.94654861 102.23086136 134.52734375 140.90625 C133.93557484 170.516749 122.49671421 198.03122664 103.3125 220.4375 C102.24902344 221.68466797 102.24902344 221.68466797 101.1640625 222.95703125 C85.70268215 240.61555512 66.47648623 253.14487556 44.3125 260.75 C43.31899536 261.09562988 43.31899536 261.09562988 42.30541992 261.44824219 C29.6123977 265.5551186 16.92956237 266.93940714 3.65844727 266.82861328 C1.3791096 266.812529 -0.89844965 266.82857455 -3.17773438 266.84765625 C-38.6499234 266.89861793 -69.43613888 252.78702679 -94.6875 228.4375 C-95.85539062 227.36435547 -95.85539062 227.36435547 -97.046875 226.26953125 C-119.8841146 204.68752999 -132.70906331 172.61985184 -133.6875 141.4375 C-133.72746094 140.37917969 -133.76742188 139.32085938 -133.80859375 138.23046875 C-134.2478097 115.62376541 -129.76227842 93.69603226 -119.6875 73.4375 C-118.83478516 71.70886719 -118.83478516 71.70886719 -117.96484375 69.9453125 C-112.04606548 58.48526345 -104.52800302 48.78148225 -95.6875 39.4375 C-94.54861328 38.20193359 -94.54861328 38.20193359 -93.38671875 36.94140625 C-78.30965142 21.12405738 -58.56163392 10.47939951 -37.6875 4.4375 C-36.63344971 4.12208252 -36.63344971 4.12208252 -35.55810547 3.80029297 C-23.82543933 0.44392664 -12.11656785 0.04851125 0 0 Z M-76.6875 58.4375 C-77.35265625 59.076875 -78.0178125 59.71625 -78.703125 60.375 C-89.19674671 71.2951917 -97.24586204 86.02653167 -101.6875 100.4375 C-101.89487793 101.10168945 -102.10225586 101.76587891 -102.31591797 102.45019531 C-110.4553584 129.97630296 -107.00521372 160.65874301 -93.9375 186 C-85.15137377 201.33699112 -72.08628923 216.46394814 -56.6875 225.4375 C-56.09275879 225.79005859 -55.49801758 226.14261719 -54.88525391 226.50585938 C-28.25405321 242.10441401 1.44986381 245.09908811 31.1796875 237.44140625 C59.02051155 228.93612279 81.76191143 210.25089838 95.52783203 184.68969727 C109.44048931 157.76716249 111.01946208 126.48322488 102.0625 97.75 C97.63255345 85.3039597 91.69544292 74.63911529 83.3125 64.4375 C82.61382813 63.57382813 81.91515625 62.71015625 81.1953125 61.8203125 C63.30269274 40.78173762 35.57611974 27.91936022 8.3125 25.4375 C-24.4894846 23.73008939 -53.15907847 35.69862282 -76.6875 58.4375 Z " fill="#000000" transform="translate(2153.6875,1791.5625)"/>
<path d="M0 0 C2.05078125 0.03255208 4.1015625 0.06510417 6.15234375 0.09765625 C77.90234371 153.84765616 77.90234371 153.84765616 78.77732849 155.72262573 C79.36071046 156.9727285 79.94409466 158.22283022 80.52748108 159.47293091 C81.98508856 162.59635009 83.44265742 165.71978728 84.90014648 168.84326172 C87.53372672 174.48706173 90.16759261 180.13072754 92.80288696 185.77372742 C98.93144321 198.89693958 105.05312667 212.02327787 111.15234375 225.16015625 C111.66804932 226.27084473 112.18375488 227.3815332 112.71508789 228.52587891 C113.69988448 230.64808909 114.68293275 232.77111162 115.6640625 234.89501953 C116.71847624 237.16401551 117.78479194 239.42749798 118.859375 241.68701172 C119.40980469 242.85248535 119.96023438 244.01795898 120.52734375 245.21875 C121.03007813 246.27376709 121.5328125 247.32878418 122.05078125 248.41577148 C123.15234375 251.09765625 123.15234375 251.09765625 123.15234375 254.09765625 C113.91234375 254.09765625 104.67234375 254.09765625 95.15234375 254.09765625 C89.52398431 242.87909574 83.95665976 231.63365666 78.46484375 220.34765625 C78.07959534 219.55604095 77.69434692 218.76442566 77.29742432 217.94882202 C71.96087213 206.97315801 66.6845848 195.97127296 61.52734375 184.91015625 C60.97731689 183.73549805 60.42729004 182.56083984 59.8605957 181.35058594 C59.36648193 180.28356445 58.87236816 179.21654297 58.36328125 178.1171875 C57.93321777 177.19010986 57.5031543 176.26303223 57.06005859 175.30786133 C56.15234375 173.09765625 56.15234375 173.09765625 56.15234375 171.09765625 C20.18234375 171.42765625 -15.78765625 171.75765625 -52.84765625 172.09765625 C-63.6319821 194.86456637 -74.40824555 217.63271585 -85.09692383 240.44433594 C-87.29099493 245.02278803 -89.57714214 249.55662804 -91.84765625 254.09765625 C-101.41765625 254.09765625 -110.98765625 254.09765625 -120.84765625 254.09765625 C-120.14174274 250.56808871 -119.71198192 248.45066454 -118.24389648 245.39770508 C-117.9145813 244.70563461 -117.58526611 244.01356415 -117.24597168 243.30052185 C-116.88636353 242.55939651 -116.52675537 241.81827118 -116.15625 241.0546875 C-115.5913385 239.8728463 -115.5913385 239.8728463 -115.01501465 238.66712952 C-113.77673491 236.07903961 -112.53084845 233.49468539 -111.28515625 230.91015625 C-110.4160819 229.09618489 -109.5476817 227.2818904 -108.67993164 225.46728516 C-107.3534183 222.69336082 -106.02657809 219.91960045 -104.69773865 217.14678955 C-101.01145648 209.45350884 -97.36817424 201.74067484 -93.74465942 194.01766968 C-92.12316979 190.56174774 -90.49929877 187.10694612 -88.875 183.65234375 C-88.54982895 182.96075668 -88.2246579 182.26916962 -87.88963318 181.55662537 C-83.89322395 173.06198184 -79.86967366 164.58019578 -75.84765625 156.09765625 C-70.1621816 144.10644581 -64.49270289 132.10795233 -58.84765625 120.09765625 C-53.22221906 108.12961698 -47.57419883 96.1724731 -41.91015625 84.22265625 C-32.96623392 65.3506967 -32.96623392 65.3506967 -24.03515625 46.47265625 C-23.5103215 45.36260727 -23.5103215 45.36260727 -22.97488403 44.23013306 C-19.2666588 36.38437047 -15.57514432 28.53139941 -11.9296875 20.65625 C-11.62242233 19.99264465 -11.31515717 19.32903931 -10.99858093 18.64532471 C-9.55920878 15.53468358 -8.1235023 12.42244538 -6.69213867 9.30810547 C-5.94927612 7.69766357 -5.94927612 7.69766357 -5.19140625 6.0546875 C-4.76021484 5.1160083 -4.32902344 4.1773291 -3.88476562 3.21020508 C-2.37028931 0.12527956 -2.37028931 0.12527956 0 0 Z M1.15234375 56.09765625 C-4.73576322 68.48692718 -10.62127086 80.8774308 -16.50457764 93.26898193 C-17.81946488 96.03828206 -19.13457617 98.80747571 -20.44970703 101.57666016 C-22.50653301 105.90796722 -24.56209646 110.23987145 -26.61676025 114.57220459 C-27.38944629 116.20100883 -28.16251134 117.82963332 -28.93597412 119.45806885 C-36.0827717 131.93087313 -36.0827717 131.93087313 -39.84765625 145.09765625 C-12.45765625 145.09765625 14.93234375 145.09765625 43.15234375 145.09765625 C42.29413948 140.80663488 41.34473476 138.09218768 39.44921875 134.25 C38.88775146 133.10192871 38.32628418 131.95385742 37.74780273 130.77099609 C37.44752167 130.16326355 37.1472406 129.55553101 36.83786011 128.92938232 C35.22815532 125.67006487 33.63809181 122.40118546 32.046875 119.1328125 C31.71982071 118.46197632 31.39276642 117.79114014 31.05580139 117.09997559 C27.81223204 110.43120383 24.69254977 103.7081477 21.58984375 96.97265625 C15.268723 83.2699026 8.74002717 69.67385666 2.15234375 56.09765625 C1.82234375 56.09765625 1.49234375 56.09765625 1.15234375 56.09765625 Z " fill="#000000" transform="translate(1706.84765625,1797.90234375)"/>
<path d="M0 0 C48.18 0 96.36 0 146 0 C146 8.58 146 17.16 146 26 C106.4 26 66.8 26 26 26 C26 51.74 26 77.48 26 104 C65.27 104 104.54 104 145 104 C145 112.58 145 121.16 145 130 C105.73 130 66.46 130 26 130 C26 162.34 26 194.68 26 228 C65.27 228 104.54 228 145 228 C145 236.58 145 245.16 145 254 C97.15 254 49.3 254 0 254 C0 170.18 0 86.36 0 0 Z " fill="#000000" transform="translate(1146,1798)"/>
<path d="M0 0 C1.05687012 0.01087646 2.11374023 0.02175293 3.20263672 0.03295898 C10.51271949 0.18259377 17.21527428 0.62423591 24.0625 3.375 C25.70992187 4.03628906 25.70992187 4.03628906 27.390625 4.7109375 C44.0762071 12.24517611 56.38717569 25.80800227 67.0625 40.375 C65.62882905 43.80342515 63.92365731 45.56577113 61 47.828125 C60.20335937 48.446875 59.40671875 49.065625 58.5859375 49.703125 C57.75320313 50.33734375 56.92046875 50.9715625 56.0625 51.625 C54.81339844 52.59953125 54.81339844 52.59953125 53.5390625 53.59375 C47.33147321 58.375 47.33147321 58.375 45.0625 58.375 C43.79321202 56.94779591 42.59711407 55.45516224 41.4375 53.9375 C32.3577763 42.37554968 23.12946562 31.56587367 8.0625 28.375 C-3.43193745 27.24877734 -14.03320793 28.08773116 -23.3125 35.625 C-30.22286253 42.26631153 -33.35195672 49.16824125 -34.25 58.6875 C-33.07758205 72.52203186 -26.24370506 84.20609478 -15.9375 93.375 C-10.34925784 97.91325648 -4.50319623 102.11816229 1.31152344 106.35888672 C56.31611723 146.6702051 56.31611723 146.6702051 68.0625 176.375 C68.4028125 177.19613281 68.743125 178.01726562 69.09375 178.86328125 C74.25234953 193.83754934 72.25523786 212.89622586 65.54931641 226.92773438 C56.73649264 244.31790814 41.87441155 256.52293188 23.87890625 263.6328125 C4.37770751 269.96350812 -17.94899091 267.91835161 -36.25 259.125 C-42.43977224 255.85216665 -47.74946765 252.06155295 -52.9375 247.375 C-53.59878906 246.79492188 -54.26007813 246.21484375 -54.94140625 245.6171875 C-63.67900775 237.46209277 -73.25895366 225.4093074 -77.9375 214.375 C-76.71906309 210.71968927 -75.77392925 210.38081849 -72.53515625 208.45703125 C-71.64505859 207.92529297 -70.75496094 207.39355469 -69.83789062 206.84570312 C-68.43313477 206.02489258 -68.43313477 206.02489258 -67 205.1875 C-66.06736328 204.62869141 -65.13472656 204.06988281 -64.17382812 203.49414062 C-57.21806319 199.375 -57.21806319 199.375 -54.9375 199.375 C-53.38697156 201.76603015 -51.93436588 204.16557312 -50.5 206.625 C-41.77822161 221.04707783 -29.52317328 235.31044276 -12.5625 239.625 C1.15749861 242.22828179 14.32538191 238.76142978 26.0625 231.375 C34.71287689 224.79752449 40.46467388 215.19506169 42.0625 204.375 C43.115095 191.19732023 39.03789862 180.06548914 30.75976562 169.75195312 C19.94146712 157.0627076 7.26423279 146.46805661 -5.9375 136.375 C-17.62100903 127.42543209 -29.13393954 118.38933932 -39.9375 108.375 C-40.7109375 107.69050781 -41.484375 107.00601562 -42.28125 106.30078125 C-53.99656215 95.44806914 -61.02959877 79.96654824 -62.17578125 64.0703125 C-62.54737634 46.19463269 -57.80139174 30.84503872 -45.28515625 17.66015625 C-32.66974128 5.38059259 -17.53303827 -0.24589531 0 0 Z " fill="#000000" transform="translate(1483.9375,1791.625)"/>
<path d="M0 0 C8.58 0 17.16 0 26 0 C26 75.57 26 151.14 26 229 C58.01 229 90.02 229 123 229 C123 237.25 123 245.5 123 254 C82.41 254 41.82 254 0 254 C0 170.18 0 86.36 0 0 Z " fill="#000000" transform="translate(1869,1798)"/>
<path d="M0 0 C0.99 1.98 0.99 1.98 2 4 C0.48958034 5.51041966 -1.16373852 5.40459247 -3.25 5.75 C-7.8180287 6.73041952 -10.0974442 8.21788183 -13 12 C-14.319018 14.66533035 -14.319018 14.66533035 -15 17 C-13.7315625 17.3403125 -13.7315625 17.3403125 -12.4375 17.6875 C-4.94394645 20.54867499 -0.52880242 24.80455131 3 32 C5.88892266 39.70379375 5.70277442 46.74923427 3.16796875 54.47265625 C-0.40581118 62.20588572 -6.3216959 66.81309099 -14 70 C-18.92233308 72.57303775 -21.83359522 75.48302126 -24.1875 80.5625 C-24.96146666 83.83697432 -25.29074928 86.86608418 -25.55078125 90.21484375 C-25.67900269 91.83894165 -25.67900269 91.83894165 -25.80981445 93.49584961 C-25.9039563 94.73540405 -25.9039563 94.73540405 -26 96 C-18.28030607 94.07599525 -10.56097473 92.15054387 -2.84204769 90.22346497 C0.85095549 89.30152164 4.54406608 88.38001338 8.23742676 87.45950317 C29.09288924 82.26930598 29.09288924 82.26930598 49.90234375 76.8984375 C50.73639236 76.67971481 51.57044098 76.46099213 52.42976379 76.23564148 C56.10625328 75.27019468 59.77952534 74.29469439 63.44848633 73.30102539 C64.68751709 72.97352295 65.92654785 72.64602051 67.203125 72.30859375 C68.24114258 72.02814209 69.27916016 71.74769043 70.34863281 71.45874023 C73.04869495 70.99157479 74.42318943 71.25732243 77 72 C54.02703271 81.45046446 31.01926861 90.81064146 7.953125 100.03125 C7.08353149 100.37888397 6.21393799 100.72651794 5.31799316 101.08468628 C-3.43838217 104.58459055 -12.19634383 108.08049936 -20.95631409 111.57139587 C-29.81698516 115.10263697 -38.67305308 118.64508182 -47.52319336 122.20263672 C-50.47076822 123.38722579 -53.42017349 124.56705895 -56.37133789 125.74267578 C-59.76851863 127.09659257 -63.16073445 128.46225616 -66.54943085 129.83726501 C-68.34946224 130.56449457 -70.15417023 131.2801159 -71.95904541 131.99523926 C-77.66816257 134.32667557 -82.56346446 136.73866507 -87.31988525 140.69445801 C-92.61679529 144.81044978 -98.63770282 145.5465045 -105.1875 145.35546875 C-111.76173414 144.5245586 -118.40863958 141.84643599 -123 137 C-128.4911814 128.95165079 -130.94671455 122.78271699 -130 113 C-128.23957003 104.91547766 -124.79788403 98.83127209 -118 94 C-110.54610908 90.11913939 -103.33094501 88.55681599 -95.171875 90.765625 C-86.14356423 93.80724841 -82.12606639 97.40032205 -77.41015625 105.58984375 C-74.99959932 109.7098261 -72.7241857 113.55649881 -68 115 C-62.06353093 115.60370872 -58.30618687 114.60252414 -52.98046875 111.97265625 C-51 111 -51 111 -48 110 C-46.66526583 107.8016143 -45.97227338 105.88354818 -45.375 103.375 C-44 101 -44 101 -42.09375 100.23828125 C-40.08204364 99.7388964 -38.04089098 99.36209356 -36 99 C-36 97.68 -36 96.36 -36 95 C-34.9765625 93.10546875 -34.9765625 93.10546875 -33.625 91.1875 C-30.47185697 86.35029194 -29 82.21883555 -29 76.375 C-30.47768601 71.38780971 -33.7400014 69.40182816 -37.96484375 66.78125 C-44.37284221 62.55024909 -47.63072065 57.28077814 -50 50 C-51.39079966 40.82072223 -49.8025539 33.65883021 -44.6796875 26.03515625 C-41.23195623 21.57948168 -37.39439398 18.69640676 -32 17 C-29.93955344 16.77225233 -27.87677295 16.56496377 -25.8125 16.375 C-22.71741171 16.06400827 -22.71741171 16.06400827 -20 15 C-18.19668759 12.56682249 -17.23075946 10.23728017 -16.14453125 7.41796875 C-14.30084928 3.52295461 -11.88462029 2.65456049 -8 1 C-5.07175348 0.02391783 -3.04386724 -0.08226668 0 0 Z M-42.40234375 30.76953125 C-45.97970745 35.76384585 -46.83430035 40.95667052 -46 47 C-44.11294374 54.60794201 -40.67851352 59.82448723 -34 64 C-27.80952312 67.05930698 -22.31166995 67.48550454 -15.609375 65.9140625 C-8.51944999 63.43046601 -4.19658684 58.95828141 -0.91015625 52.28515625 C1.5979864 45.98788822 1.32753514 40.86949705 -0.87109375 34.4609375 C-3.70965496 28.2730705 -7.70689357 24.24146683 -13.9375 21.5 C-25.7863911 17.49070754 -34.66309193 21.33779891 -42.40234375 30.76953125 Z M-119.53125 101.2734375 C-124.12628885 106.67505232 -126.2782777 112.90996814 -126 120 C-124.86493131 127.0015816 -121.44485118 132.49145967 -116 137 C-109.70829942 140.58515844 -103.73294303 142.22933585 -96.59375 140.375 C-89.22540612 137.88929363 -84.5670836 133.81328175 -80.90625 126.94921875 C-78.30141916 120.73862669 -78.33385441 115.37328169 -80.5 109 C-83.18507894 102.81018643 -87.24014218 98.72867026 -93.37890625 95.90625 C-102.75760761 92.5688538 -112.24676732 94.29820173 -119.53125 101.2734375 Z M-33 97 C-29 98 -29 98 -29 98 Z M-38 105 C-38.33 106.98 -38.66 108.96 -39 111 C-37.02 111 -35.04 111 -33 111 C-33 109.02 -33 107.04 -33 105 C-34.65 105 -36.3 105 -38 105 Z " fill="#000000" transform="translate(2070,1693)"/>
<path d="M0 0 C1.23987316 3.71961948 0.65097967 4.3268877 -1.05102539 7.74560547 C-1.52692108 8.7138475 -2.00281677 9.68208954 -2.49313354 10.67967224 C-3.02262604 11.73155228 -3.55211853 12.78343231 -4.09765625 13.8671875 C-4.63875031 14.96180801 -5.17984436 16.05642853 -5.73733521 17.18421936 C-6.90000366 19.53323276 -8.06601935 21.88017923 -9.2383728 24.22433472 C-11.06269882 27.87216913 -12.8741163 31.52630463 -14.68286133 35.18188477 C-16.47365482 38.79997542 -18.26498416 42.4177875 -20.0610199 46.03327942 C-25.02739139 56.0340549 -29.89998389 66.07636983 -34.72485352 76.14599609 C-38.40169228 83.80571401 -42.1826822 91.40961297 -46 99 C-47.17304607 95.48086178 -46.77682594 94.57507577 -45.63574219 91.13427734 C-45.3103949 90.13879883 -44.98504761 89.14332031 -44.64984131 88.11767578 C-44.10387299 86.49321533 -44.10387299 86.49321533 -43.546875 84.8359375 C-43.17564514 83.70736328 -42.80441528 82.57878906 -42.42193604 81.41601562 C-41.20761546 77.73239797 -39.98004086 74.05339599 -38.75 70.375 C-37.49392189 66.60560536 -36.23875882 62.83590748 -34.98400879 59.06607056 C-34.15113913 56.56434961 -33.31707381 54.0630264 -32.48181152 51.56210327 C-30.11971889 44.46550257 -27.85330842 37.35089731 -25.703125 30.1875 C-25.01270808 27.93733752 -24.31935472 25.68810694 -23.62463379 23.43927002 C-23.21262563 22.07767847 -22.81377569 20.71202633 -22.42907715 19.34246826 C-19.58704397 9.24491009 -19.58704397 9.24491009 -15.62744141 6.13891602 C-13.10913243 4.84543571 -10.68910881 3.87389373 -8 3 C-6.45782092 2.3971425 -4.91610701 1.79309281 -3.375 1.1875 C-2.26125 0.795625 -1.1475 0.40375 0 0 Z " fill="#000000" transform="translate(2039,1809)"/>
<path d="M0 0 C0.33 0.66 0.66 1.32 1 2 C0.34 1.67 -0.32 1.34 -1 1 C-0.67 0.67 -0.34 0.34 0 0 Z " fill="#000000" transform="translate(2097,1744)"/>
</svg>
